<svg width="20" height="20" fill="none" xmlns="http://www.w3.org/2000/svg"><g clip-path="url('#clip0_0_57')"><path d="m6.4 18.605-.023.045.023-.045-1.923-1.009c-.973-.51-1.749-.917-2.346-1.317-.619-.413-1.092-.845-1.436-1.43-.343-.581-.498-1.213-.572-1.97C.05 12.141.05 11.234.05 10.09v-.182c0-1.144 0-2.05.073-2.787.074-.758.23-1.39.572-1.972.344-.584.817-1.016 1.436-1.43.597-.399 1.373-.806 2.346-1.316L6.4 1.394C7.193.98 7.826.647 8.37.422 8.935.187 9.446.05 10 .05s1.065.137 1.629.37c.545.226 1.178.559 1.971.975l.023-.045-.023.045 1.923 1.009c.973.51 1.748.917 2.346 1.317.619.413 1.092.845 1.436 1.43.343.581.498 1.213.572 1.97.073.737.073 1.644.073 2.788v.182c0 1.144 0 2.05-.073 2.787-.074.758-.23 1.39-.572 1.972-.344.584-.817 1.016-1.436 1.43-.598.399-1.373.806-2.346 1.316l-1.923 1.01c-.793.415-1.426.748-1.971.973-.564.233-1.075.371-1.629.371s-1.065-.137-1.629-.37c-.545-.226-1.178-.558-1.971-.975Zm11.38-13.22.063-.03-.05-.05a4.375 4.375 0 0 0-.643-.507c-.535-.357-1.25-.733-2.262-1.265l-1.86-.976c-.828-.434-1.41-.74-1.895-.94-.472-.195-.808-.272-1.133-.272-.325 0-.661.077-1.134.273-.484.2-1.066.505-1.893.939l-.244.128-.084.044.084.044 7.907 4.162.023.012.023-.012 3.098-1.55ZM5.334 3.46l-.026-.029-.034.018-.162.085c-1.012.532-1.727.908-2.262 1.265a4.37 4.37 0 0 0-.643.507l-.05.05.063.03 7.758 3.88.022.01.022-.01 3.123-1.562.088-.043-.087-.046-7.634-4.018-.023.045.023-.045a.647.647 0 0 1-.178-.137ZM1.592 6.52l-.056-.028-.015.062c-.047.201-.083.43-.11.695-.065.666-.066 1.51-.066 2.697v.108c0 1.187.001 2.031.067 2.697.064.653.187 1.08.4 1.442l.043-.026-.044.026c.212.36.518.661 1.039 1.01.535.356 1.25.732 2.262 1.264l.024-.044-.024.044 1.86.976c.828.434 1.41.74 1.894.94.154.063.293.114.422.154l.064.02V10.4l-.027-.015L1.592 6.52Zm9.056 11.969v.068l.065-.02c.128-.04.267-.091.42-.155.485-.2 1.067-.505 1.894-.939l1.86-.976-.023-.044.024.044c1.012-.531 1.727-.908 2.262-1.265.521-.348.827-.65 1.039-1.01.212-.361.335-.788.4-1.44.065-.667.066-1.51.066-2.698v-.108c0-1.187-.001-2.031-.067-2.697a5.284 5.284 0 0 0-.11-.696l-.014-.061-.056.028-3.082 1.54-.027.015v2.855a.648.648 0 1 1-1.295 0V8.723l-.073.036-3.256 1.627-.027.014v8.089Z" fill="#515F72" stroke="#FCFCFF" stroke-width=".1"/></g><defs><clipPath id="clip0_0_57"><path fill="#fff" d="M0 0h20v20H0z"/></clipPath></defs></svg>