<svg width="24" height="24" fill="none" xmlns="http://www.w3.org/2000/svg"><path d="m18.194 16.69.084.049.08-.057a2.85 2.85 0 0 1 3.308-.002 2.85 2.85 0 1 1-4.401 1.56l.03-.11-.098-.059-2.3-1.37-.1-.06-.083.083a3.85 3.85 0 0 1-5.428 0l-.083-.082-.1.06-2.3 1.37-.1.059.033.111c.072.247.11.502.114.759A2.85 2.85 0 1 1 4 16.15a2.85 2.85 0 0 1 1.643.532l.08.057.083-.05 2.45-1.45.104-.06-.037-.115a3.59 3.59 0 0 1-.173-1.065 3.85 3.85 0 0 1 2.887-3.714l.113-.029V7.714l-.1-.035a2.85 2.85 0 1 1 1.9 0l-.1.035v2.542l.113.03a3.85 3.85 0 0 1 2.887 3.713 3.59 3.59 0 0 1-.173 1.065l-.037.114.104.061 2.45 1.45ZM3.36 19.955l.083-.125-.083.125a1.15 1.15 0 1 0 1.278-1.912 1.15 1.15 0 0 0-1.278 1.912ZM12.64 4.044a1.15 1.15 0 1 0-1.278 1.912 1.15 1.15 0 0 0 1.278-1.912Zm-1.833 11.744a2.15 2.15 0 1 0 2.389-3.577 2.15 2.15 0 0 0-2.39 3.577Zm8.555 4.168a1.15 1.15 0 1 0 1.278-1.912 1.15 1.15 0 0 0-1.278 1.912Z" fill="#515F72" stroke="#FCFCFF" stroke-width=".3"/></svg>