<svg width="21" height="18" fill="none" xmlns="http://www.w3.org/2000/svg"><path d="M2.656 5.625c0-.448.201-.877.559-1.193a2.04 2.04 0 0 1 1.348-.495h7.63c.505 0 .99.178 1.348.495.357.316.558.745.558 1.193v6.75c0 .448-.2.877-.558 1.193a2.04 2.04 0 0 1-1.349.495H4.563a2.04 2.04 0 0 1-1.348-.495 1.595 1.595 0 0 1-.559-1.193v-6.75Zm1.907-2.813c-.843 0-1.651.297-2.247.824-.596.528-.931 1.243-.931 1.989v6.75c0 .746.335 1.461.93 1.989.597.527 1.405.823 2.248.823h7.63c.417 0 .83-.072 1.216-.214a3.231 3.231 0 0 0 1.03-.61c.296-.26.53-.57.69-.912.16-.34.242-.707.242-1.076v-.563l2.288 1.52a1.06 1.06 0 0 0 .999.08.921.921 0 0 0 .385-.312.773.773 0 0 0 .142-.444V5.35c0-.156-.05-.31-.142-.443a.921.921 0 0 0-.385-.311 1.062 1.062 0 0 0-.999.08l-2.288 1.513v-.563c0-.37-.082-.735-.242-1.076a2.815 2.815 0 0 0-.69-.913 3.233 3.233 0 0 0-1.03-.61 3.54 3.54 0 0 0-1.217-.213H4.563Zm10.808 4.782 2.543-1.683v6.183l-2.543-1.688V7.594Z" fill="#fff"/></svg>