<svg width="79" height="19" fill="none" xmlns="http://www.w3.org/2000/svg"><path d="M6.811 5.623c-3.476 0-6.267 2.805-6.267 6.439S3.335 18.5 6.811 18.5c3.476 0 6.268-2.804 6.268-6.438S10.287 5.623 6.81 5.623Zm0 9.317c-1.536 0-2.72-1.147-2.72-2.878 0-1.732 1.184-2.879 2.72-2.879 1.537 0 2.72 1.147 2.72 2.879 0 1.731-1.182 2.878-2.72 2.878ZM22.019 5.623c-1.563 0-2.744.584-3.382 1.487V1.086h-3.548V18.16h3.548V11.5c0-1.733.898-2.513 2.198-2.513 1.136 0 2.06.708 2.06 2.219v6.953h3.548v-7.49c0-3.293-2.035-5.048-4.423-5.048l-.001.001ZM32.425 8.134V5.962h-3.547V18.16h3.547v-5.514c0-2.414 2.08-3.025 3.549-2.78V5.719c-1.491 0-3.077.78-3.548 2.415ZM45.858 5.964V7.11c-.78-.926-1.939-1.487-3.523-1.487-3.1 0-5.654 2.805-5.654 6.439s2.554 6.438 5.654 6.438c1.583 0 2.742-.56 3.523-1.487v1.147h3.547V5.964h-3.547Zm-2.814 9.074c-1.633 0-2.814-1.147-2.814-2.976 0-1.83 1.181-2.976 2.814-2.976 1.632 0 2.814 1.146 2.814 2.976s-1.182 2.976-2.814 2.976ZM54.016 13.866c-1.228 0-2.245 1.05-2.245 2.316 0 1.267 1.017 2.318 2.245 2.318 1.229 0 2.248-1.049 2.248-2.318 0-1.269-1.017-2.316-2.248-2.316Z" fill="#fff"/><path d="M67.783 1.086h-4.825L57.33 18.16h4.139l.828-2.684h6.149l.829 2.684h4.138l-5.63-17.074ZM63.43 11.818l1.938-6.269 1.939 6.269H63.43ZM74.356 2.696c0-1.195.97-2.196 2.129-2.196s2.129 1 2.129 2.196c0 1.196-.97 2.195-2.13 2.195-1.159 0-2.128-1-2.128-2.195ZM78.26 5.964h-3.548v12.195h3.548V5.964Z" fill="#fff" fill-opacity=".6"/></svg>