<svg width="22" height="22" fill="none" xmlns="http://www.w3.org/2000/svg"><path d="M21.125.5 16.07 5.713h-5.126L15.997.5h5.128Z" fill="#fff"/><path d="M16.07 5.713v8.393c0 .602-.237 1.147-.62 1.541l3.572 3.684a7.489 7.489 0 0 0 2.102-5.225V.5L16.07 5.713ZM5.816 14.107V7.893c0-.601.237-1.146.62-1.54L2.863 2.668A7.489 7.489 0 0 0 .761 7.893v6.214a7.49 7.49 0 0 0 2.102 5.226l3.573-3.684a2.209 2.209 0 0 1-.62-1.541Z" fill="#fff"/><path d="M15.45 15.648c-.382.395-.911.64-1.494.64H7.931a2.075 2.075 0 0 1-1.495-.64l-3.572 3.684C4.162 20.67 5.954 21.5 7.931 21.5h6.026c1.976 0 3.768-.83 5.067-2.168l-3.572-3.684h-.002ZM10.943.5v5.213H7.93c-.583 0-1.111.244-1.495.639L2.862 2.667C4.162 1.33 5.954.5 7.93.5h3.013Z" fill="#fff" fill-opacity=".6"/></svg>