<svg width="28" height="28" fill="none" xmlns="http://www.w3.org/2000/svg"><path d="m27.5 0-6.74 6.95h-6.836L20.664 0H27.5Z" fill="#59CAE3"/><path d="M20.76 6.95v11.192c0 .802-.316 1.528-.827 2.055l4.764 4.912a9.985 9.985 0 0 0 2.802-6.968V0L20.76 6.95ZM7.088 18.143V9.858c0-.802.316-1.528.826-2.055L3.151 2.89A9.985 9.985 0 0 0 .348 9.858v8.285a9.987 9.987 0 0 0 2.803 6.967l4.763-4.912a2.945 2.945 0 0 1-.826-2.054v-.001Z" fill="#59CAE3"/><path d="M19.934 20.198a2.769 2.769 0 0 1-1.992.852H9.908a2.767 2.767 0 0 1-1.992-.852L3.153 25.11C4.883 26.893 7.273 28 9.909 28h8.034c2.635 0 5.025-1.106 6.756-2.89l-4.763-4.912h-.002ZM13.924 0v6.95H9.907a2.77 2.77 0 0 0-1.993.852L3.15 2.89C4.883 1.105 7.272 0 9.907 0h4.017Z" fill="#2897C4"/></svg>