<svg width="123" height="28" fill="none" xmlns="http://www.w3.org/2000/svg"><path d="M10.475 7.97c-5.408 0-9.75 4.362-9.75 10.015C.725 23.638 5.067 28 10.475 28c5.407 0 9.749-4.362 9.749-10.015 0-5.653-4.342-10.015-9.75-10.015Zm0 14.492c-2.39 0-4.232-1.783-4.232-4.477 0-2.694 1.841-4.478 4.232-4.478 2.39 0 4.23 1.784 4.23 4.478s-1.839 4.477-4.23 4.477ZM34.13 7.97c-2.43 0-4.268.908-5.26 2.313V.912h-5.52V27.47h5.52V17.113c0-2.695 1.397-3.91 3.42-3.91 1.766 0 3.203 1.103 3.203 3.452v10.816h5.519V15.82c0-5.123-3.165-7.853-6.88-7.853l-.001.002ZM50.319 11.876V8.497h-5.52V27.47h5.52V18.89c0-3.754 3.235-4.704 5.519-4.323v-6.45c-2.32 0-4.786 1.214-5.52 3.758ZM71.213 8.499v1.784C70 8.84 68.198 7.97 65.733 7.97c-4.821 0-8.794 4.362-8.794 10.015C56.94 23.638 60.912 28 65.733 28c2.463 0 4.265-.872 5.48-2.313v1.784h5.52V8.499h-5.52Zm-4.377 14.115c-2.54 0-4.378-1.783-4.378-4.63 0-2.845 1.838-4.629 4.378-4.629 2.539 0 4.377 1.784 4.377 4.63s-1.838 4.63-4.377 4.63ZM83.904 20.792c-1.91 0-3.493 1.632-3.493 3.602S81.993 28 83.904 28c1.911 0 3.497-1.632 3.497-3.606s-1.582-3.602-3.497-3.602Z" fill="#4996FF"/><path d="M105.318.912h-7.504L89.06 27.47h6.438l1.289-4.175h9.564l1.289 4.175h6.437L105.318.912Zm-6.769 16.693 3.016-9.751 3.015 9.751h-6.032.001ZM115.544 3.415c0-1.858 1.509-3.415 3.312-3.415 1.802 0 3.311 1.555 3.311 3.415s-1.507 3.416-3.311 3.416-3.312-1.555-3.312-3.416ZM121.618 8.499h-5.519v18.97h5.519V8.5Z" fill="#3873CB"/></svg>