<svg width="21" height="18" fill="none" xmlns="http://www.w3.org/2000/svg"><path d="M16.89 2.813H4.176c-1.054 0-1.907.755-1.907 1.687v9c0 .932.853 1.688 1.907 1.688H16.89c1.053 0 1.907-.756 1.907-1.688v-9c0-.932-.854-1.688-1.907-1.688Z" stroke="#00A8BA" stroke-width="1.125" stroke-linejoin="round"/><path d="M13.712 7.313c.702 0 1.271-.504 1.271-1.125 0-.622-.57-1.125-1.271-1.125-.703 0-1.272.503-1.272 1.125 0 .62.57 1.125 1.272 1.125Z" stroke="#00A8BA" stroke-width="1.125" stroke-miterlimit="10"/><path d="M12.44 11.805 8.838 8.624a1.356 1.356 0 0 0-.861-.33 1.374 1.374 0 0 0-.882.284l-4.826 3.797m6.993 2.813 4.9-4.337c.224-.198.524-.316.841-.329.317-.013.628.08.872.259l2.922 2.156" stroke="#00A8BA" stroke-width="1.125" stroke-linecap="round" stroke-linejoin="round"/></svg>