<svg width="24" height="24" fill="none" xmlns="http://www.w3.org/2000/svg"><path d="M22.875 14.25a.375.375 0 0 1-.375.375h-1.875V16.5a.375.375 0 1 1-.75 0v-1.875H18a.375.375 0 0 1 0-.75h1.875V12a.375.375 0 1 1 .75 0v1.875H22.5a.375.375 0 0 1 .375.375ZM6 6h1.5v1.5a.375.375 0 0 0 .75 0V6h1.5a.375.375 0 0 0 0-.75h-1.5v-1.5a.375.375 0 0 0-.75 0v1.5H6A.375.375 0 0 0 6 6Zm11.25 12.375h-1.125V17.25a.375.375 0 0 0-.75 0v1.125H14.25a.375.375 0 1 0 0 .75h1.125v1.125a.375.375 0 1 0 .75 0v-1.125h1.125a.375.375 0 1 0 0-.75Zm-.485-7.61-9.97 9.97a1.127 1.127 0 0 1-1.59 0l-1.94-1.94a1.124 1.124 0 0 1 0-1.59l13.94-13.94a1.127 1.127 0 0 1 1.59 0l1.94 1.94a1.124 1.124 0 0 1 0 1.59l-3.97 3.97ZM14.03 7.5l2.47 2.47 3.704-3.705a.373.373 0 0 0 0-.53l-1.939-1.94a.376.376 0 0 0-.53 0L14.03 7.5Zm1.94 3L13.5 8.03l-9.704 9.705a.374.374 0 0 0 0 .53l1.939 1.94a.375.375 0 0 0 .53 0L15.97 10.5Z" fill="#AAB3BF" stroke="#AAB3BF" stroke-width=".5"/></svg>