<svg width="24" height="24" fill="none" xmlns="http://www.w3.org/2000/svg"><path d="M9.592 3.2c.612-.521.918-.782 1.238-.935.74-.353 1.6-.353 2.34 0 .32.153.626.414 1.238.935.243.208.365.312.495.399.298.2.633.338.985.408.153.03.313.043.632.068.801.064 1.202.096 1.536.214a2.713 2.713 0 0 1 1.655 1.655c.118.334.15.735.214 1.536.025.319.038.479.068.632.07.352.208.687.408.985.087.13.191.252.399.495.521.612.782.918.935 1.238.353.74.353 1.6 0 2.34-.153.32-.414.626-.935 1.238a5.71 5.71 0 0 0-.399.495 2.71 2.71 0 0 0-.408.985c-.03.153-.043.313-.068.632-.064.801-.096 1.202-.214 1.536a2.713 2.713 0 0 1-1.655 1.655c-.334.118-.735.15-1.536.214-.32.025-.479.038-.632.068a2.71 2.71 0 0 0-.985.408 5.69 5.69 0 0 0-.495.399c-.612.521-.918.782-1.238.935-.74.353-1.6.353-2.34 0-.32-.153-.626-.414-1.238-.935a5.703 5.703 0 0 0-.495-.399 2.711 2.711 0 0 0-.985-.408 5.72 5.72 0 0 0-.632-.068c-.801-.064-1.202-.096-1.536-.214a2.713 2.713 0 0 1-1.655-1.655c-.118-.334-.15-.735-.214-1.536-.025-.319-.038-.479-.068-.632a2.712 2.712 0 0 0-.408-.985 5.711 5.711 0 0 0-.399-.495c-.521-.612-.782-.918-.935-1.238a2.713 2.713 0 0 1 0-2.34c.153-.32.414-.626.935-1.238.208-.243.312-.365.399-.495.2-.298.338-.633.408-.985.03-.153.043-.313.068-.632.064-.801.096-1.202.214-1.536a2.713 2.713 0 0 1 1.655-1.655c.334-.118.735-.15 1.536-.214.319-.025.479-.038.632-.068.352-.07.687-.208.985-.408.13-.087.252-.191.495-.399Z" stroke="#515F72" stroke-width="1.4"/><path d="m8.744 15.256 6.511-6.51" stroke="#515F72" stroke-width="1.4" stroke-linecap="round"/><path d="M15.798 14.713a1.085 1.085 0 1 1-2.17 0 1.085 1.085 0 0 1 2.17 0ZM10.372 9.288a1.085 1.085 0 1 1-2.17 0 1.085 1.085 0 0 1 2.17 0Z" fill="#515F72"/></svg>