<svg width="24" height="24" fill="none" xmlns="http://www.w3.org/2000/svg"><path d="M3.942 20.983a.22.22 0 0 0 .22-.22V14.58a.22.22 0 0 0-.22-.22h-1.76a.221.221 0 0 0-.22.22v6.183c0 .122.099.22.22.22h1.76Zm0 .88h-1.76a1.1 1.1 0 0 1-1.1-1.1V14.58a1.1 1.1 0 0 1 1.1-1.1h1.76a1.1 1.1 0 0 1 1.1 1.1v6.183a1.1 1.1 0 0 1-1.1 1.1Zm5.98-.88a.22.22 0 0 0 .22-.22v-7.46a.22.22 0 0 0-.22-.22H8.164a.22.22 0 0 0-.22.22v7.46c0 .122.098.22.22.22h1.76Zm0 .88H8.164a1.1 1.1 0 0 1-1.1-1.1v-7.46a1.1 1.1 0 0 1 1.1-1.1h1.76a1.1 1.1 0 0 1 1.1 1.1v7.46a1.1 1.1 0 0 1-1.1 1.1Zm5.982-.866a.22.22 0 0 0 .22-.22V12.04a.22.22 0 0 0-.22-.22h-1.76a.22.22 0 0 0-.22.22v8.737c0 .121.098.22.22.22h1.76Zm0 .88h-1.76a1.1 1.1 0 0 1-1.1-1.1V12.04a1.1 1.1 0 0 1 1.1-1.1h1.76a1.1 1.1 0 0 1 1.1 1.1v8.737a1.1 1.1 0 0 1-1.1 1.1Zm5.98-.88a.22.22 0 0 0 .22-.22V10.94a.22.22 0 0 0-.22-.22h-1.76a.221.221 0 0 0-.22.22v9.837c0 .121.1.22.22.22h1.76Zm0 .88h-1.76a1.1 1.1 0 0 1-1.1-1.1V10.94a1.1 1.1 0 0 1 1.1-1.1h1.76a1.1 1.1 0 0 1 1.1 1.1v9.837a1.1 1.1 0 0 1-1.1 1.1ZM21.752 3.79A47.142 47.142 0 0 1 1.413 9.78a.44.44 0 1 0 .054.878 48.022 48.022 0 0 0 20.716-6.102.44.44 0 0 0-.432-.766Z" fill="#515F72" stroke="#515F72" stroke-width=".4"/><path d="m20.36 3.88 2.2.003a.44.44 0 0 0 .001-.88L20.361 3a.44.44 0 1 0 0 .88Z" fill="#515F72" stroke="#515F72" stroke-width=".4"/><path d="m22.12 3.442-.007 2.187a.44.44 0 0 0 .88.003L23 3.445a.44.44 0 1 0-.88-.003Z" fill="#515F72" stroke="#515F72" stroke-width=".4"/></svg>