<svg width="26" height="26" fill="none" xmlns="http://www.w3.org/2000/svg"><g clip-path="url('#clip0_0_74')"><path fill="#EFF9FC" d="M.5.5h25v25H.5z"/><path d="M25.33 11.418 10.094 2.623a1.907 1.907 0 0 0-2.6.697L5.74 6.358 4.573 8.38a1.907 1.907 0 0 0 .697 2.601l5.223 3.015-.812 1.386a1.226 1.226 0 0 1-1.053.603h-3.05V13.66a.342.342 0 0 0-.342-.342H3.381v-.441a1.515 1.515 0 0 0-1.514-1.514H.842a.342.342 0 0 0-.342.342v11.585a.342.342 0 0 0 .342.342h1.025a1.515 1.515 0 0 0 1.514-1.514v-1.085h1.855a.342.342 0 0 0 .342-.342v-1.68h3.05a4.265 4.265 0 0 0 3.664-2.098l.823-1.404 2.863 1.653a1.895 1.895 0 0 0 1.445.19c.31-.082.596-.243.827-.466a2.849 2.849 0 0 0 1.945.165 2.855 2.855 0 0 0 1.556-1.054l.7.404a.34.34 0 0 0 .38-.025.344.344 0 0 0 .087-.1l2.535-4.391a.342.342 0 0 0-.124-.468ZM2.696 22.12a.83.83 0 0 1-.83.83h-.683V12.049h.683a.83.83 0 0 1 .83.83v9.241Zm2.198-1.769H3.38v-6.348h1.514v6.348Zm6.807-3.782a3.577 3.577 0 0 1-3.074 1.76h-3.05v-1.66h3.05a1.912 1.912 0 0 0 1.643-.94l.815-1.39 1.438.83-.822 1.4Zm4.618.003L5.612 10.39a1.222 1.222 0 0 1-.447-1.668l.996-1.726 9.814 5.667 3.009 1.737-.997 1.726-.001.003a1.199 1.199 0 0 1-.086.126v.002a1.221 1.221 0 0 1-1.58.315Zm3.699-.18a2.178 2.178 0 0 1-1.355-.07l.913-1.581 1.58.912c-.29.362-.69.621-1.138.74Zm2.48-.753-2.21-1.276-.668-.385-7.546-4.357-5.572-3.217 1.583-2.741a1.222 1.222 0 0 1 1.668-.447L24.69 11.84l-2.193 3.798Z" fill="#32B5D6" stroke="#3FB9D8" stroke-width=".4"/><path d="M21.038 13.78a1.307 1.307 0 0 0 .997.132 1.315 1.315 0 1 0-.997-.132Zm.111-1.454a.626.626 0 0 1 .547-.314.632.632 0 1 1-.547.316v-.002ZM9.387 10.319 6.586 8.7a.342.342 0 1 0-.342.592l2.802 1.618a.342.342 0 0 0 .34-.592Z" fill="#32B5D6" stroke="#3FB9D8" stroke-width=".4"/></g><defs><clipPath id="clip0_0_74"><path fill="#fff" transform="translate(.5 .5)" d="M0 0h25v25H0z"/></clipPath></defs></svg>