<svg width="24" height="24" fill="none" xmlns="http://www.w3.org/2000/svg"><path d="M16.285 13.5a.857.857 0 1 0 0-1.715.857.857 0 0 0 0 1.715Zm0 3.428a.857.857 0 1 0 0-1.714.857.857 0 0 0 0 1.714Zm-3.429-4.285a.857.857 0 1 1-1.714 0 .857.857 0 0 1 1.714 0Zm0 3.428a.857.857 0 1 1-1.714 0 .857.857 0 0 1 1.714 0ZM7.714 13.5a.857.857 0 1 0 0-1.715.857.857 0 0 0 0 1.715Zm0 3.428a.857.857 0 1 0 0-1.714.857.857 0 0 0 0 1.714Z" fill="#AAB3BF"/><path fill-rule="evenodd" clip-rule="evenodd" d="M7.714 3a.643.643 0 0 1 .643.643v.654c.567-.011 1.192-.011 1.88-.011h3.525c.688 0 1.313 0 1.88.01v-.653a.643.643 0 1 1 1.286 0v.709c.223.017.434.038.634.065 1.004.135 1.818.42 2.46 1.061.64.642.925 1.455 1.06 2.46.132.977.132 2.224.132 3.8v1.81c0 1.575 0 2.823-.131 3.8-.136 1.004-.42 1.818-1.061 2.46-.642.64-1.456.925-2.46 1.06-.978.132-2.225.132-3.8.132h-3.524c-1.575 0-2.823 0-3.8-.131-1.004-.136-1.818-.42-2.46-1.061-.64-.642-.925-1.456-1.06-2.46-.132-.977-.132-2.225-.132-3.8v-1.81c0-1.576 0-2.824.131-3.8.136-1.005.42-1.818 1.061-2.46.642-.641 1.456-.926 2.46-1.061.2-.027.412-.048.634-.065v-.71A.643.643 0 0 1 7.714 3ZM6.608 5.691c-.861.116-1.358.334-1.721.696-.363.363-.58.86-.696 1.722-.02.146-.036.3-.05.462h15.717a9.371 9.371 0 0 0-.05-.462c-.116-.862-.333-1.359-.696-1.722-.362-.362-.86-.58-1.722-.696-.88-.118-2.042-.12-3.676-.12h-3.429c-1.634 0-2.795.002-3.677.12Zm-2.537 6.095c0-.732 0-1.37.011-1.929h15.835c.011.56.011 1.197.011 1.929V13.5c0 1.635-.002 2.796-.12 3.677-.116.862-.333 1.359-.696 1.721-.362.363-.86.58-1.722.696-.88.119-2.042.12-3.676.12h-3.429c-1.634 0-2.795-.001-3.677-.12-.861-.115-1.358-.333-1.721-.696-.363-.362-.58-.86-.696-1.722-.118-.88-.12-2.041-.12-3.676v-1.714Z" fill="#AAB3BF"/></svg>